# This file uses centimeters as units for non-parametric coordinates.

mtllib MOD_Book.mtl
g default
v 443.651469 111.929195 -721.809362
v 449.268229 111.929195 -721.809362
v 443.651469 84.352176 -721.809362
v 449.268229 84.352176 -721.809362
v 443.651469 84.352176 -700.714392
v 445.055521 84.352176 -699.310339
v 444.353495 84.352176 -699.498449
v 443.839579 84.352176 -700.012365
v 443.651469 111.929195 -700.714392
v 443.839579 111.929195 -700.012365
v 444.353495 111.929195 -699.498449
v 445.055521 111.929195 -699.310339
v 449.268229 84.352176 -700.714392
v 449.080119 84.352176 -700.012365
v 448.566203 84.352176 -699.498449
v 447.864176 84.352176 -699.310339
v 449.268229 111.929195 -700.714392
v 447.864176 111.929195 -699.310339
v 448.566203 111.929195 -699.498449
v 449.080119 111.929195 -700.012365
v 444.349711 111.929195 -700.012365
v 444.190714 111.929195 -721.809362
v 448.569315 111.929195 -700.012365
v 448.700297 111.929195 -721.809362
v 448.569315 111.205005 -700.012365
v 444.349711 111.205005 -700.012365
v 448.569071 84.352176 -700.012365
v 448.690653 84.352176 -721.809362
v 444.351786 84.352176 -700.012365
v 444.278666 84.352176 -721.809362
v 448.569071 84.895778 -700.012365
v 448.690653 84.895778 -721.068151
v 444.351786 84.895778 -700.012365
v 444.278666 84.895778 -721.068151
v 448.698039 111.205005 -721.065161
v 444.190653 111.205005 -721.068151
vt 0.523878 0.474783
vt 0.907161 0.474783
vt 0.907161 0.767974
vt 0.523878 0.767974
vt 0.907161 0.465026
vt 0.523878 0.465026
vt 0.907161 0.457883
vt 0.523878 0.457883
vt 0.907161 0.089240
vt 0.907161 0.382432
vt 0.523878 0.382432
vt 0.523878 0.089240
vt 0.907161 0.392189
vt 0.523878 0.392189
vt 0.907161 0.399332
vt 0.523878 0.399332
vt 0.183979 0.222496
vt 0.185800 0.525437
vt 0.175693 0.515131
vt 0.173914 0.222561
vt 0.333697 0.082605
vt 0.125333 0.222494
vt 0.135398 0.222570
vt 0.133263 0.515209
vt 0.345628 0.458286
vt 0.335359 0.465889
vt 0.336376 0.768840
vt 0.343931 0.768814
vt 0.396680 0.465892
vt 0.394990 0.768838
vt 0.387435 0.768795
vt 0.389067 0.476153
vt 0.402093 0.768840
vt 0.404708 0.465891
vt 0.404708 0.759083
vt 0.394950 0.775983
vt 0.336399 0.775983
vt 0.346157 0.778597
vt 0.385193 0.778597
vt 0.329257 0.768840
vt 0.326642 0.759083
vt 0.326642 0.465894
vt 0.125385 0.215349
vt 0.118242 0.222492
vt 0.183936 0.215349
vt 0.123122 0.525439
vt 0.115628 0.525441
vt 0.115628 0.232249
vt 0.191079 0.222492
vt 0.135142 0.212735
vt 0.174179 0.212735
vt 0.193693 0.232249
vt 0.193693 0.525441
vt 0.024983 0.936598
vt 0.024984 0.877951
vt 0.317630 0.876134
vt 0.317630 0.938812
vt 0.975940 0.877956
vt 0.975940 0.936570
vt 0.683293 0.937589
vt 0.683293 0.876268
vt 0.523878 0.409089
vt 0.907161 0.409089
vt 0.907161 0.448126
vt 0.523878 0.448126
vt 0.183979 0.232561
vt 0.125332 0.232560
vt 0.336375 0.761285
vt 0.394990 0.761282
vt 0.326202 0.082614
vt 0.404778 0.082608
vt 0.396884 0.082604
vt 0.344043 0.092626
vt 0.342949 0.476168
vt 0.386556 0.092682
vt 0.386382 0.458334
vn -0.053506 0.000000 0.998568
vn -0.053506 0.000000 0.998568
vn 0.053506 0.000000 0.998568
vn 0.053506 0.000000 0.998568
vn 0.999963 0.000000 0.008630
vn 0.999963 0.000000 0.008630
vn 1.000000 0.000000 0.000000
vn 1.000000 0.000000 0.000000
vn -1.000000 0.000000 0.000000
vn -0.999963 0.000000 0.008630
vn -0.999963 0.000000 0.008630
vn -1.000000 0.000000 0.000000
vn -0.866025 0.000000 0.500001
vn -0.866025 0.000000 0.500001
vn -0.500001 0.000000 0.866025
vn -0.500001 0.000000 0.866025
vn 0.500001 0.000000 0.866025
vn 0.500001 0.000000 0.866025
vn 0.866025 0.000000 0.500001
vn 0.866025 0.000000 0.500001
vn 0.000000 -1.000000 0.000000
vn 0.000000 -1.000000 0.000000
vn 0.000000 -1.000000 0.000000
vn 0.000000 -1.000000 0.000000
vn 0.000000 -1.000000 0.000000
vn 0.000000 1.000000 0.000002
vn 0.000000 1.000000 0.000000
vn 0.000000 1.000000 0.000000
vn 0.000000 1.000000 0.000002
vn 0.000000 1.000000 0.000003
vn 0.000000 1.000000 0.000003
vn 0.000000 1.000000 0.000000
vn 0.000000 1.000000 0.000000
vn 0.000000 1.000000 0.000000
vn 0.000000 1.000000 0.000000
vn 0.000000 1.000000 -0.000000
vn 0.000000 1.000000 -0.000000
vn 0.000000 1.000000 -0.000000
vn 0.000000 1.000000 -0.000000
vn -0.999981 -0.001555 -0.006061
vn -0.999980 -0.001555 -0.006061
vn -0.999981 -0.001555 -0.006061
vn -0.999981 -0.001555 -0.006061
vn 0.999965 -0.003840 -0.007422
vn 0.999965 -0.003840 -0.007422
vn 0.999965 -0.003840 -0.007422
vn 0.999965 -0.003840 -0.007422
vn 0.000000 0.000000 -1.000000
vn 0.000000 0.000000 -1.000000
vn 0.000000 0.000000 -1.000000
vn 0.000000 0.000000 -1.000000
vn 0.000000 -1.000000 -0.000012
vn 0.000000 -1.000000 -0.000000
vn 0.000000 -1.000000 -0.000000
vn 0.000000 -1.000000 -0.000012
vn 0.000000 -1.000000 0.000000
vn 0.000000 -1.000000 0.000000
vn 0.000000 -1.000000 0.000000
vn 0.000000 -1.000000 0.000000
vn 0.000000 -1.000000 0.000000
vn -0.999977 0.003869 -0.005674
vn -0.999976 0.003869 -0.005674
vn -0.999976 0.003869 -0.005674
vn -0.999977 0.003869 -0.005674
vn 0.000000 0.000000 -1.000000
vn 0.000000 0.000000 -1.000000
vn 0.000000 0.000000 -1.000000
vn 0.000000 0.000000 -1.000000
vn 0.999991 0.002326 -0.003413
vn 0.999991 0.002326 -0.003413
vn 0.999992 0.002326 -0.003413
vn 0.999991 0.002326 -0.003413
vn 0.000336 0.000057 -1.000000
vn 0.000336 0.000057 -1.000000
vn 0.000336 0.000057 -1.000000
vn 0.000336 0.000057 -1.000000
vn 0.000000 1.000000 0.000000
vn 0.000000 1.000000 0.000000
vn 0.000000 1.000000 0.000000
vn 0.000000 1.000000 0.000000
vn 0.999995 0.003265 0.000439
vn 0.999995 0.003265 0.000439
vn 0.999995 0.003265 0.000439
vn 0.999995 0.003265 0.000439
vn -0.999999 0.000316 -0.001482
vn -0.999999 0.000316 -0.001482
vn -0.999999 0.000316 -0.001482
vn -0.999999 0.000316 -0.001482
vn 0.000000 0.000000 -1.000000
vn 0.000000 0.000000 -1.000000
vn 0.000000 0.000000 -1.000000
vn 0.000000 0.000000 -1.000000
vn 0.000000 0.000000 -1.000000
vn 0.000000 0.000000 -1.000000
vn 0.000000 0.000000 -1.000000
vn 0.000000 0.000000 -1.000000
vn 0.000000 -1.000000 -0.000000
vn 0.000000 -1.000000 -0.000000
vn 0.000000 -1.000000 -0.000000
vn 0.000000 -1.000000 -0.000000
s 1
g pCube160
usemtl initialShadingGroup
f 12/62/1 6/63/2 16/64/3 18/65/4
f 17/1/5 13/2/6 4/3/7 2/4/8
f 3/9/9 5/10/10 9/11/11 1/12/12
f 5/10/10 8/13/13 10/14/14 9/11/11
f 8/13/13 7/15/15 11/16/16 10/14/14
f 7/15/15 6/63/2 12/62/1 11/16/16
f 16/64/3 15/7/17 19/8/18 18/65/4
f 15/7/17 14/5/19 20/6/20 19/8/18
f 14/5/19 13/2/6 17/1/5 20/6/20
s 4
f 14/33/21 27/30/22 28/29/23 4/34/24 13/35/25
s 5
f 11/43/26 21/22/27 10/44/28
f 19/45/29 11/43/26 12/50/30 18/51/31
f 21/22/27 22/46/32 1/47/33 9/48/34 10/44/28
f 19/45/29 23/17/35 21/22/27 11/43/26
f 20/49/36 23/17/35 19/45/29
f 17/52/37 2/53/38 24/18/39 23/17/35 20/49/36
s off
f 23/17/40 24/18/41 35/19/42 25/20/43
f 22/46/44 21/22/45 26/23/46 36/24/47
f 21/22/48 23/17/49 25/66/50 26/67/51
s 4
f 6/38/52 7/37/53 15/36/54 16/39/55
f 15/36/54 27/30/22 14/33/21
f 15/36/54 7/37/53 29/27/56 27/30/22
f 29/27/56 7/37/53 8/40/57
f 30/26/58 29/27/56 8/40/57 5/41/59 3/42/60
s off
f 28/29/61 27/30/62 31/31/63 32/32/64
f 27/30/65 29/27/66 33/68/67 31/69/68
f 29/27/69 30/26/70 34/74/71 33/28/72
f 36/57/73 35/56/74 32/61/75 34/60/76
f 26/54/77 25/55/78 35/56/79 36/57/80
f 36/73/81 34/25/82 30/26/83 22/21/84
f 32/76/85 35/75/86 24/72/87 28/29/88
f 3/42/89 1/70/90 22/21/91 30/26/92
f 2/71/93 4/34/94 28/29/95 24/72/96
f 31/58/97 33/59/98 34/60/99 32/61/100
